<?xml version="1.0" encoding="UTF-8"?>
<svg version="1.1" xmlns="http://www.w3.org/2000/svg" width="538" height="538">
<path d="M0 0 C177.54 0 355.08 0 538 0 C538 177.54 538 355.08 538 538 C360.46 538 182.92 538 0 538 C0 360.46 0 182.92 0 0 Z " fill="#E3ECEE" transform="translate(0,0)"/>
<path d="M0 0 C0.99 0.33 1.98 0.66 3 1 C8.09716718 15.23998802 7.26751958 31.11768023 7 46 C7.66 46 8.32 46 9 46 C9.03955811 45.2874707 9.07911621 44.57494141 9.11987305 43.84082031 C9.6559183 35.93783531 10.99933686 28.45256895 12.8125 20.75 C13.06064453 19.63109375 13.30878906 18.5121875 13.56445312 17.359375 C15.02834893 11.04190101 16.81943066 5.65741184 20 0 C21.91821289 0.36401367 21.91821289 0.36401367 24 1 C31.24782955 13.05086883 34 33.17195389 34 47 C34.66 47 35.32 47 36 47 C35.98952637 46.42781738 35.97905273 45.85563477 35.96826172 45.26611328 C35.80865311 35.14611914 35.74883311 25.07605894 36.8125 15 C36.88259277 14.27828613 36.95268555 13.55657227 37.02490234 12.81298828 C37.5556442 8.33717125 38.77183878 4.90691282 41 1 C41.99 1 42.98 1 44 1 C47.23880111 12.37879681 49.90334077 23.84365916 52.25 35.4375 C52.50797363 36.69191895 52.76594727 37.94633789 53.03173828 39.23876953 C54.53755692 46.81996024 55.55415907 54.28249353 56 62 C57.546875 61.505 57.546875 61.505 59.125 61 C63.34772283 59.64872869 67.34165857 59.35025929 71.51928711 60.98706055 C72.3469458 61.44894775 73.17460449 61.91083496 74.02734375 62.38671875 C74.97399902 62.90709717 75.9206543 63.42747559 76.89599609 63.96362305 C77.89969238 64.53250244 78.90338867 65.10138184 79.9375 65.6875 C80.97986816 66.26604736 82.02223633 66.84459473 83.09619141 67.44067383 C86.40443531 69.28159556 89.7021269 71.1405763 93 73 C95.20653724 74.23005326 97.41356114 75.45923398 99.62109375 76.6875 C101.70633719 77.85307956 103.79099458 79.01970836 105.875 80.1875 C106.86105225 80.73946045 107.84710449 81.2914209 108.86303711 81.86010742 C109.77190674 82.37420166 110.68077637 82.8882959 111.6171875 83.41796875 C112.81770752 84.09508911 112.81770752 84.09508911 114.04248047 84.78588867 C116 86 116 86 118 88 C117.360625 88.78375 116.72125 89.5675 116.0625 90.375 C112.81401832 94.50943123 112.42134116 97.82200109 113 103 C114.28184562 105.74832154 114.28184562 105.74832154 116 108 C116.68210206 109.3255033 117.35144125 110.65776538 118 112 C117.01531738 112.45213867 116.03063477 112.90427734 115.01611328 113.37011719 C106.08858156 117.46964948 97.16183756 121.57089146 88.23603821 125.67419434 C84.58309957 127.35343504 80.93009095 129.03251624 77.27587891 130.70898438 C64.58054731 136.53410279 51.92016024 142.43066909 39.28790283 148.39117432 C37.72918671 149.126514 36.17022916 149.86134215 34.61102295 150.59564209 C26.81704747 154.26670406 19.03784089 157.95950624 11.3203125 161.7890625 C10.16797119 162.35689453 9.01562988 162.92472656 7.82836914 163.50976562 C5.71221106 164.55637562 3.60159357 165.6142945 1.49780273 166.68554688 C0.57169189 167.14251953 -0.35441895 167.59949219 -1.30859375 168.0703125 C-2.10064209 168.47008301 -2.89269043 168.86985352 -3.70874023 169.28173828 C-8.44477497 170.7663855 -13.29004324 168.31298703 -17.875 166.9375 C-28.26458857 164.04385484 -38.71410188 163.52546806 -48.94921875 167.34375 C-52.14606867 168.36674198 -54.44309369 168.25303454 -57.47924805 166.87353516 C-58.39746338 166.35065918 -59.31567871 165.8277832 -60.26171875 165.2890625 C-61.29047119 164.70825928 -62.31922363 164.12745605 -63.37915039 163.52905273 C-64.47090576 162.90071533 -65.56266113 162.27237793 -66.6875 161.625 C-67.80568115 160.98957275 -68.9238623 160.35414551 -70.07592773 159.69946289 C-81.83831577 152.99703818 -93.54478773 146.21657706 -105 139 C-103.09570312 136.41210938 -103.09570312 136.41210938 -101.19140625 133.82421875 C-98.67803564 129.97587753 -98.69114101 126.47845529 -99 122 C-100.40759341 119.23558031 -100.40759341 119.23558031 -102 117 C-102 116.34 -102 115.68 -102 115 C-84.38286379 106.60638933 -66.71838131 98.34069383 -48.875 90.4375 C-48.14253052 90.11305908 -47.41006104 89.78861816 -46.65539551 89.4543457 C-36.45043165 84.93883433 -26.22618694 80.46719287 -16 76 C-15.67 73.03 -15.34 70.06 -15 67 C-24.38636977 70.5985782 -33.45084074 74.8295394 -42.5625 79.0625 C-44.28748864 79.86148216 -46.01258866 80.66022388 -47.73779297 81.45874023 C-52.25686052 83.55117498 -56.77450043 85.64667221 -61.29168701 87.74316406 C-65.65358503 89.76737257 -70.01625333 91.78991915 -74.37890625 93.8125 C-75.2271698 94.20579498 -76.07543335 94.59908997 -76.94940186 95.00430298 C-85.43575794 98.93880917 -93.92323268 102.8708961 -102.41156006 106.80114746 C-105.06453996 108.0298921 -107.71710289 109.25953372 -110.36962891 110.48925781 C-114.73101097 112.5107143 -119.09428366 114.52803738 -123.45892334 116.54244995 C-125.10118522 117.30114024 -126.74283628 118.06115425 -128.3838501 118.82254028 C-130.63839643 119.86831333 -132.89506344 120.90936306 -135.15234375 121.94921875 C-135.8210701 122.26069855 -136.48979645 122.57217834 -137.17878723 122.89309692 C-141.77172674 125 -141.77172674 125 -144 125 C-144 125.66 -144 126.32 -144 127 C-142.9174292 127.41052612 -142.9174292 127.41052612 -141.81298828 127.8293457 C-139.07285482 128.96968071 -136.57392666 130.26963835 -133.9921875 131.73046875 C-133.01942871 132.27840088 -132.04666992 132.82633301 -131.04443359 133.39086914 C-129.99852051 133.98375732 -128.95260742 134.57664551 -127.875 135.1875 C-125.6148556 136.46142066 -123.35442927 137.73484124 -121.09375 139.0078125 C-120.21993179 139.5004937 -120.21993179 139.5004937 -119.32846069 140.00312805 C-113.02772252 143.55370883 -106.70119294 147.05752108 -100.375 150.5625 C-89.17498486 156.77574643 -78.01375833 163.05493975 -66.87207031 169.37207031 C-61.79175828 172.25166234 -56.70834738 175.12577087 -51.625 178 C-50.69204102 178.52803223 -49.75908203 179.05606445 -48.79785156 179.60009766 C-47.03727352 180.59580305 -45.27434605 181.58736882 -43.50878906 182.57421875 C-41.82852757 183.52913575 -40.16353735 184.51140899 -38.51464844 185.51953125 C-37.34337402 186.22142578 -37.34337402 186.22142578 -36.1484375 186.9375 C-35.46700684 187.35902344 -34.78557617 187.78054688 -34.08349609 188.21484375 C-30.35344726 189.62049609 -27.57564299 188.23165605 -24.00610352 186.79516602 C-22.89162842 186.28655029 -21.77715332 185.77793457 -20.62890625 185.25390625 C-20.00736664 184.97159653 -19.38582703 184.6892868 -18.74545288 184.39842224 C-16.68183501 183.45876657 -14.62209527 182.51093691 -12.5625 181.5625 C-11.09519756 180.89113594 -9.6278296 180.21991506 -8.16040039 179.54882812 C6.98016134 172.60740942 22.01891137 165.45030002 37.0594635 158.29559326 C44.90241205 154.5667772 52.76071039 150.8710599 60.625 147.1875 C61.28090118 146.88021973 61.93680237 146.57293945 62.61257935 146.25634766 C72.86620001 141.45416951 83.13334743 136.68137515 93.40673828 131.92163086 C99.66397974 129.02057851 105.91437929 126.10582484 112.15625 123.171875 C112.84552078 122.84793259 113.53479156 122.52399017 114.24494934 122.19023132 C117.01368111 120.88886453 119.78239585 119.58746178 122.5508728 118.28555298 C131.74263576 113.96512394 140.95837791 109.70605537 150.25390625 105.61230469 C153.35154693 104.24061008 156.1735651 102.88428994 159 101 C158.26700684 100.60844727 157.53401367 100.21689453 156.77880859 99.81347656 C143.57322034 92.7564893 130.37466893 85.68938245 117.24291992 78.49560547 C111.2046889 75.19117788 105.14368611 71.93167682 99.07275391 68.68774414 C93.70376486 65.8127446 88.35035543 62.9094903 83 60 C82.08557129 59.50661133 81.17114258 59.01322266 80.22900391 58.50488281 C77.80745831 57.19002884 75.40172772 55.8506279 73 54.5 C72.30608154 54.1272998 71.61216309 53.75459961 70.8972168 53.37060547 C67.67018598 51.5176893 66.16434119 50.40674445 64.75 46.90625 C64.5025 45.9471875 64.255 44.988125 64 44 C62.51377778 42.33356809 62.51377778 42.33356809 61 41 C68.72547237 43.26170702 75.39917826 46.69147331 82.4375 50.5625 C84.28258872 51.56639096 86.12916021 52.5675177 87.97583008 53.5684967 C89.27720394 54.27403376 90.57814068 54.98037763 91.87866211 55.68748474 C98.94958835 59.52828038 106.06698628 63.2800762 113.18499756 67.03265381 C124.29569781 72.89161982 135.37325078 78.80184477 146.3828125 84.84936523 C155.84882931 90.03824673 165.41907915 95.02728574 175 100 C175 101.32 175 102.64 175 104 C166.6991776 108.20942179 158.32572066 112.22618977 149.875 116.125 C148.64031235 116.69622239 147.40569477 117.26759625 146.17114258 117.83911133 C142.44850511 119.56174392 138.72430436 121.2809742 135 123 C132.92315709 123.95959215 130.8463331 124.91922524 128.76953125 125.87890625 C120.70819544 129.60227146 112.64488953 133.32136202 104.57958984 137.03613281 C99.67760895 139.29394402 94.77616803 141.55292484 89.875 143.8125 C89.04128876 144.19677155 88.20757751 144.58104309 87.34860229 144.97695923 C75.30033973 150.53184116 63.28162878 156.14634996 51.28094482 161.80316162 C40.95565785 166.6659387 30.55749081 171.33342392 20.11010742 175.9284668 C13.55804497 178.8229899 7.11181918 181.8472223 0.74291992 185.12353516 C-5.48321208 188.3071345 -11.86349322 191.13390625 -18.26538086 193.9440918 C-21.59833222 195.41682234 -24.67732963 196.78255835 -27.70703125 198.82421875 C-30.89161071 200.45719732 -32.53127693 199.79887763 -36 199 C-38.43791521 198.05852797 -40.78666112 197.08027611 -43.16015625 196 C-43.85010178 195.69253342 -44.5400473 195.38506683 -45.25090027 195.06828308 C-47.52465014 194.05253638 -49.79359284 193.02651327 -52.0625 192 C-53.6642034 191.28124535 -55.26609481 190.56290953 -56.86816406 189.8449707 C-72.93023307 182.6325832 -88.92324765 175.26795887 -104.90869141 167.88769531 C-110.58052455 165.26962115 -116.25851403 162.66501522 -121.9375 160.0625 C-122.86739746 159.63549805 -123.79729492 159.20849609 -124.75537109 158.76855469 C-129.5871965 156.55221552 -134.42708073 154.35540887 -139.27734375 152.1796875 C-140.30029541 151.71941162 -141.32324707 151.25913574 -142.37719727 150.78491211 C-144.32513361 149.90937984 -146.27475487 149.03758327 -148.22631836 148.17016602 C-149.08749268 147.78272217 -149.94866699 147.39527832 -150.8359375 146.99609375 C-151.59438965 146.65763428 -152.3528418 146.3191748 -153.13427734 145.97045898 C-155 145 -155 145 -157 143 C-157.1953125 140.3984375 -157.1953125 140.3984375 -157.125 137.375 C-157.10695313 136.37210938 -157.08890625 135.36921875 -157.0703125 134.3359375 C-157.04710937 133.56507813 -157.02390625 132.79421875 -157 132 C-155.02 132.33 -153.04 132.66 -151 133 C-151.99 132.443125 -152.98 131.88625 -154 131.3125 C-155.485 130.1678125 -155.485 130.1678125 -157 129 C-157.1875 126.35546875 -157.1875 126.35546875 -157 124 C-138.93848618 114.85428296 -120.6448013 106.25945201 -102.1991272 97.91946411 C-91.33420174 93.00493064 -80.52768925 87.97776712 -69.75 82.875 C-55.60742985 76.18074467 -41.37724755 69.71003884 -27.07080078 63.37353516 C-23.07555803 61.58650735 -19.10663901 59.74396289 -15.14233398 57.8894043 C-13 57 -13 57 -11 57 C-11.03480469 55.89914062 -11.06960937 54.79828125 -11.10546875 53.6640625 C-11.09975801 48.45815623 -10.24044343 43.48567244 -9.3125 38.375 C-9.13605957 37.38459717 -8.95961914 36.39419434 -8.77783203 35.3737793 C-7.46163146 28.15294087 -5.97981624 20.97447994 -4.375 13.8125 C-4.06622925 12.42393799 -4.06622925 12.42393799 -3.7512207 11.00732422 C-3.45284302 9.7139917 -3.45284302 9.7139917 -3.1484375 8.39453125 C-2.97489746 7.64018799 -2.80135742 6.88584473 -2.62255859 6.10864258 C-1.97360101 3.91058508 -1.08400242 2.01489877 0 0 Z " fill="#FAFBFB" transform="translate(240,248)"/>
<path d="M0 0 C24.980202 14.27440114 36.8203851 51.53637474 44.015625 77.51367188 C45.27390935 82.14136209 46.44345622 86.78538311 47.54296875 91.453125 C47.73761719 92.25105469 47.93226563 93.04898438 48.1328125 93.87109375 C52.40056102 111.97008566 51.66886177 131.43808902 48.19921875 149.58984375 C47.30019929 154.51894457 47.30019929 154.51894457 47.54296875 159.453125 C49.31273949 161.53732201 50.94331882 163.1779948 52.98046875 164.953125 C63.75755717 175.03734344 71.33752251 186.6723732 71.93774414 201.70556641 C72.1903426 215.73271954 70.51231876 231.26867835 65.54296875 244.453125 C61.71405679 242.96035536 60.18764009 240.88149931 57.91796875 237.515625 C45.83201839 220.46503537 45.83201839 220.46503537 28.36425781 209.96191406 C26.43198647 209.71623592 24.4869532 209.57541469 22.54296875 209.453125 C22.75953125 210.33355469 22.97609375 211.21398437 23.19921875 212.12109375 C23.47765625 213.28253906 23.75609375 214.44398438 24.04296875 215.640625 C24.32140625 216.78917969 24.59984375 217.93773437 24.88671875 219.12109375 C25.54296875 222.453125 25.54296875 222.453125 25.54296875 227.453125 C8.05296875 227.453125 -9.43703125 227.453125 -27.45703125 227.453125 C-27.45703125 218.453125 -27.45703125 218.453125 -26.45703125 213.953125 C-26.27140625 213.0971875 -26.08578125 212.24125 -25.89453125 211.359375 C-25.75015625 210.7303125 -25.60578125 210.10125 -25.45703125 209.453125 C-37.39291373 210.44654627 -47.2607168 221.14239587 -55.05517578 229.75732422 C-57.96817724 233.28113267 -60.37215181 237.15242326 -62.69213867 241.0847168 C-63.56993603 242.56768932 -64.50800639 244.01469269 -65.45703125 245.453125 C-66.11703125 245.453125 -66.77703125 245.453125 -67.45703125 245.453125 C-79.10973441 199.238278 -79.10973441 199.238278 -67.64453125 179.203125 C-63.91951578 173.50651783 -59.12892314 168.99554165 -53.99291992 164.57519531 C-52.21558966 162.94663258 -50.76189531 161.4812145 -49.45703125 159.453125 C-49.43052753 156.3356252 -49.70526996 154.39432014 -50.45703125 151.453125 C-52.26551922 142.33905353 -52.85952183 133.48716665 -52.83203125 124.203125 C-52.83148743 123.50747437 -52.8309436 122.81182373 -52.8303833 122.09509277 C-52.68065863 80.11708491 -37.70326819 35.87981007 -8.9375 4.9140625 C-3.25434972 -0.72433857 -3.25434972 -0.72433857 0 0 Z " fill="#1798D3" transform="translate(262.45703125,8.546875)"/>
<path d="M0 0 C2.76329355 1.06949695 5.27403546 2.43234722 7.859375 3.87890625 C8.84421875 4.42675781 9.8290625 4.97460938 10.84375 5.5390625 C11.59140625 5.96058594 12.3390625 6.38210938 13.109375 6.81640625 C13.109375 7.47640625 13.109375 8.13640625 13.109375 8.81640625 C2.26616084 13.98979517 -8.60760145 19.09347803 -19.515625 24.12890625 C-20.60472168 24.63196289 -21.69381836 25.13501953 -22.81591797 25.65332031 C-28.82082733 28.42084042 -34.84075314 31.14867852 -40.890625 33.81640625 C-41.83035156 34.2340625 -42.77007812 34.65171875 -43.73828125 35.08203125 C-46.81445312 36.44921875 -46.81445312 36.44921875 -49.890625 37.81640625 C-50.12332505 40.15967611 -50.12332505 40.15967611 -47.453125 42.31640625 C-46.6075 43.14140625 -45.761875 43.96640625 -44.890625 44.81640625 C-43.27682305 48.04401016 -43.49126852 50.22219794 -43.890625 53.81640625 C-48.870584 65.38868803 -60.52445332 69.9192553 -71.43359375 74.5546875 C-79.03063182 77.32739179 -85.60134217 78.17465094 -93.640625 78.12890625 C-95.09553345 78.12479736 -95.09553345 78.12479736 -96.57983398 78.12060547 C-104.56667489 78.00426304 -112.04175202 77.13577085 -119.32421875 73.65234375 C-124.89998502 71.83618853 -129.85908578 74.50096555 -134.8359375 76.984375 C-135.48706512 77.30167068 -136.13819275 77.61896637 -136.80905151 77.94587708 C-138.88153892 78.95799868 -140.94855676 79.98077035 -143.015625 81.00390625 C-144.37986583 81.67192389 -145.74444672 82.33924749 -147.109375 83.00585938 C-155.05981919 86.89570083 -162.9808029 90.84467772 -170.890625 94.81640625 C-168.16390375 98.10399172 -164.54825727 99.66100744 -160.7734375 101.4609375 C-160.07926727 101.79437668 -159.38509705 102.12781586 -158.66989136 102.47135925 C-157.20400611 103.17160134 -155.73635843 103.86816431 -154.26708984 104.5612793 C-152.02217249 105.62580148 -149.79074108 106.71564727 -147.55859375 107.80664062 C-146.13096665 108.48467189 -144.70260409 109.16115724 -143.2734375 109.8359375 C-142.60869415 110.1649556 -141.94395081 110.49397369 -141.25906372 110.83296204 C-138.381655 112.15977202 -136.53702417 112.97518431 -133.40185547 112.20507812 C-132.57314941 111.74681641 -131.74444336 111.28855469 -130.890625 110.81640625 C-129.73433594 110.32487061 -128.57804688 109.83333496 -127.38671875 109.3269043 C-126.03351423 108.74476742 -124.68067081 108.1617907 -123.328125 107.578125 C-122.59260406 107.26109116 -121.85708313 106.94405731 -121.09927368 106.61741638 C-118.69590946 105.58069046 -116.29318087 104.54250401 -113.890625 103.50390625 C-112.65394073 102.96959991 -112.65394073 102.96959991 -111.39227295 102.42449951 C-99.19076585 97.14958381 -87.0362144 91.78087401 -74.91699219 86.31982422 C-67.12237041 82.80931084 -59.30388375 79.36213665 -51.45776367 75.96850586 C-42.46296152 72.07498117 -33.49049568 68.13128183 -24.51809692 64.18649292 C-11.09230143 58.28413883 2.33845987 52.39405797 15.796875 46.56640625 C16.95131104 46.0664917 18.10574707 45.56657715 19.29516602 45.05151367 C21.46826878 44.11179787 23.64246018 43.17459446 25.81787109 42.24023438 C28.18686365 41.21546323 30.54762429 40.17816079 32.90478516 39.12695312 C33.85319023 38.70872284 33.85319023 38.70872284 34.820755 38.28204346 C36.59060204 37.50148887 38.35752806 36.71432081 40.12426758 35.92675781 C43.109375 34.81640625 43.109375 34.81640625 47.109375 34.81640625 C47.109375 38.11640625 47.109375 41.41640625 47.109375 44.81640625 C8.13833917 62.486195 8.13833917 62.486195 -9.97924805 70.04199219 C-18.09697794 73.4413612 -26.09314313 77.07212556 -34.07958984 80.76782227 C-43.57491994 85.15502367 -53.15612566 89.32775057 -62.76171875 93.46679688 C-67.28160462 95.4163856 -71.79694619 97.37641452 -76.31274414 99.33544922 C-80.72310415 101.24860676 -85.13479946 103.1586774 -89.54649353 105.0687561 C-94.14719721 107.06086325 -98.74706464 109.05489202 -103.34661865 111.0496521 C-106.75390724 112.52704153 -110.16166625 114.00334368 -113.56951904 115.47943115 C-115.23527705 116.20120153 -116.90084672 116.92340673 -118.56622314 117.64605713 C-120.89650885 118.65713417 -123.22747057 119.66663688 -125.55859375 120.67578125 C-126.25719009 120.97932526 -126.95578644 121.28286926 -127.67555237 121.59561157 C-135.47688263 124.96839256 -135.47688263 124.96839256 -138.88867188 123.71508789 C-140.13354987 123.1456231 -141.37346123 122.56522923 -142.609375 121.9765625 C-143.28638458 121.66371307 -143.96339417 121.35086365 -144.66091919 121.02853394 C-146.90841341 119.98756884 -149.14932528 118.93313412 -151.390625 117.87890625 C-152.97005917 117.14487842 -154.54998261 116.41190253 -156.13037109 115.67993164 C-159.41924703 114.1556381 -162.7059545 112.62680467 -165.99121094 111.09472656 C-172.761034 107.94152574 -179.55485609 104.84116984 -186.34960938 101.74215698 C-188.5330566 100.74595303 -190.71584624 99.7483219 -192.8984375 98.75024414 C-203.40277543 93.94715926 -213.91635443 89.16458353 -224.4331665 84.3888855 C-235.82111924 79.21725796 -247.19883779 74.02352588 -258.57144165 68.8182373 C-266.75938814 65.07064403 -274.95092699 61.33131741 -283.15234375 57.61328125 C-283.90649567 57.27123657 -284.66064758 56.92919189 -285.43765259 56.57678223 C-289.03567331 54.94505198 -292.63438503 53.31488096 -296.234375 51.6875 C-302.51400293 48.84379991 -308.75707892 45.96501186 -314.890625 42.81640625 C-314.890625 39.18640625 -314.890625 35.55640625 -314.890625 31.81640625 C-308.88930171 33.58929293 -303.35510699 36.29535696 -297.703125 38.94140625 C-295.35313381 40.0331318 -293.00285831 41.1242455 -290.65234375 42.21484375 C-289.72023071 42.64790833 -289.72023071 42.64790833 -288.76928711 43.08972168 C-281.19630095 46.60715802 -273.60827058 50.09163917 -266.015625 53.56640625 C-265.28702271 53.89990082 -264.55842041 54.23339539 -263.80773926 54.57699585 C-250.70878655 60.56783511 -237.56445215 66.4542703 -224.38696289 72.27026367 C-218.01981671 75.08183349 -211.66195029 77.90088822 -205.359375 80.85546875 C-204.42472412 81.29060791 -203.49007324 81.72574707 -202.52709961 82.17407227 C-200.88180653 82.94420613 -199.24141027 83.72494763 -197.60766602 84.51928711 C-193.46617706 86.4509642 -191.26087944 87.04636052 -186.890625 85.81640625 C-184.91000125 85.00557116 -182.95286787 84.13618552 -181.015625 83.2265625 C-179.87714111 82.69498535 -178.73865723 82.1634082 -177.56567383 81.61572266 C-176.34060523 81.03689459 -175.11559026 80.45795298 -173.890625 79.87890625 C-172.61568387 79.28129997 -171.34053497 78.68413679 -170.06518555 78.08740234 C-162.09570213 74.35274269 -154.15550255 70.55741078 -146.22045898 66.75024414 C-137.65933171 62.66496536 -129.00953878 58.77772588 -120.36505127 54.87329102 C-106.99324321 48.8277429 -93.7242845 42.57529789 -80.48461914 36.24609375 C-71.8992181 32.14798261 -63.27310814 28.16146095 -54.58927917 24.27613831 C-45.71889393 20.30365339 -36.89968242 16.22281775 -28.08447266 12.12963867 C-25.33688707 10.85395615 -22.58841966 9.58018782 -19.83984375 8.30664062 C-18.07547031 7.48839018 -16.31114546 6.67003496 -14.546875 5.8515625 C-13.73343628 5.47451675 -12.91999756 5.09747101 -12.08190918 4.70899963 C-11.32591431 4.35780563 -10.56991943 4.00661163 -9.79101562 3.64477539 C-8.80228455 3.18585655 -8.80228455 3.18585655 -7.7935791 2.71766663 C-6.43498853 2.07422292 -5.0934672 1.39422232 -3.76501465 0.69065857 C-1.890625 -0.18359375 -1.890625 -0.18359375 0 0 Z " fill="#47A9D2" transform="translate(397.890625,360.18359375)"/>
<path d="M0 0 C2.97527316 1.08191751 5.85934172 2.33000421 8.6875 3.75 C9.26886719 4.03359375 9.85023438 4.3171875 10.44921875 4.609375 C12 6 12 6 12.53515625 8.7578125 C14.92438968 14.04598249 19.71882564 15.60008719 24.75 18.125 C26.95867223 19.27539124 29.16699873 20.42644648 31.375 21.578125 C32.49132812 22.15240234 33.60765625 22.72667969 34.7578125 23.31835938 C39.46496298 25.75983923 44.10613096 28.31585069 48.75 30.875 C57.81917442 35.83813062 66.93278974 40.71666285 76.05175781 45.58737183 C86.09403972 50.95359598 96.07485023 56.42038538 106 62 C106 62.99 106 63.98 106 65 C105.3208252 65.27320068 104.64165039 65.54640137 103.94189453 65.82788086 C95.84882706 69.13635485 87.94776482 72.77727773 80.05371094 76.52758789 C76.28600671 78.31728962 72.51393037 80.09773567 68.7421875 81.87890625 C67.98951599 82.23457672 67.23684448 82.59024719 66.46136475 82.95669556 C59.9923529 86.01071691 53.5009801 89.01464471 47 92 C32.75213218 98.55088534 18.57104236 105.2421054 4.38769531 111.93115234 C-2.78145718 115.31197582 -9.95319011 118.68731833 -17.125 122.0625 C-18.17114975 122.55488663 -18.17114975 122.55488663 -19.23843384 123.05722046 C-29.88412572 128.0675107 -40.53405101 133.06872551 -51.1875 138.0625 C-52.15372284 138.51545944 -52.15372284 138.51545944 -53.13946533 138.97756958 C-53.76455994 139.27057953 -54.38965454 139.56358948 -55.03369141 139.86547852 C-55.64867493 140.15398178 -56.26365845 140.44248505 -56.89727783 140.73973083 C-58.7075837 141.58694614 -60.52052608 142.42852037 -62.33349609 143.27001953 C-64.92573961 144.48039913 -67.48894721 145.73880125 -70.04541016 147.02294922 C-70.71542557 147.35282333 -71.38544098 147.68269745 -72.07575989 148.02256775 C-73.35467884 148.65297149 -74.62773877 149.29546378 -75.89335632 149.9521637 C-80.03464674 151.97113118 -82.59036734 152.31530856 -87 151 C-89.82641602 149.69995117 -89.82641602 149.69995117 -92.75390625 148.04296875 C-93.84461426 147.43122803 -94.93532227 146.8194873 -96.05908203 146.18920898 C-97.22700634 145.52217978 -98.39480945 144.85493833 -99.5625 144.1875 C-100.77936419 143.50063713 -101.99665479 142.8145292 -103.21435547 142.12915039 C-106.81640964 140.0979861 -110.4088303 138.05034827 -114 136 C-114.9605127 135.45279297 -115.92102539 134.90558594 -116.91064453 134.34179688 C-120.32601557 132.39517981 -123.73965944 130.4456353 -127.14916992 128.48876953 C-133.86611357 124.63492231 -140.61517108 120.84055495 -147.375 117.0625 C-163.96344024 107.79094566 -180.51600111 98.45615881 -197 89 C-197 88.34 -197 87.68 -197 87 C-180.92275277 79.41424514 -164.82415974 71.88478955 -148.625 64.5625 C-137.18211548 59.38924237 -125.79289493 54.11254437 -114.4375 48.75 C-113.01160066 48.07737925 -111.58565713 47.40485217 -110.15966797 46.73242188 C-109.46570923 46.4051712 -108.77175049 46.07792053 -108.0567627 45.74075317 C-104.70467673 44.16014482 -101.35246191 42.57981082 -98 41 C-97.37772522 40.70659729 -96.75545044 40.41319458 -96.11431885 40.11090088 C-92.16485248 38.24991432 -88.20913545 36.40281325 -84.25 34.5625 C-83.28634521 34.1077832 -82.32269043 33.65306641 -81.32983398 33.18457031 C-76.88217271 31.12851119 -72.94579651 29.45036227 -68 29 C-68 31.97 -68 34.94 -68 38 C-78.43354633 42.8881946 -88.89323055 47.71615072 -99.375 52.5 C-100.11436798 52.83750275 -100.85373596 53.17500549 -101.61550903 53.5227356 C-104.71176516 54.93599145 -107.80808868 56.34909878 -110.90473938 57.76148987 C-115.64922943 59.92573431 -120.39151985 62.09470931 -125.13208008 64.26754761 C-128.17241114 65.66042485 -131.2140235 67.05048766 -134.25592041 68.43994141 C-135.70238405 69.10135768 -137.14831384 69.76394277 -138.59368896 70.42773438 C-140.6013931 71.34952188 -142.6109933 72.26704612 -144.62109375 73.18359375 C-146.32930298 73.96561157 -146.32930298 73.96561157 -148.07202148 74.76342773 C-150.40832229 75.75011693 -152.5251818 76.49930115 -155 77 C-154.34 78.010625 -153.68 79.02125 -153 80.0625 C-150.84969085 83.87929874 -150.36847821 86.57934749 -151 91 C-152.5890283 94.5938771 -154.82456447 97.7368467 -157 101 C-156.42894531 101.32049316 -155.85789063 101.64098633 -155.26953125 101.97119141 C-142.70970444 109.02735802 -130.20296234 116.16053378 -117.80859375 123.50439453 C-116.85855469 124.06368652 -115.90851563 124.62297852 -114.9296875 125.19921875 C-114.09679199 125.69252686 -113.26389648 126.18583496 -112.40576172 126.6940918 C-109.95112009 128.02653325 -107.6726033 129.17768131 -105 130 C-101.40663508 128.74570339 -101.40663508 128.74570339 -98 127 C-87.99091461 123.72191526 -76.98679916 126.10396025 -67.2421875 129.02734375 C-66.17226562 129.34832031 -65.10234375 129.66929687 -64 130 C-62.87718628 130.3722168 -62.87718628 130.3722168 -61.73168945 130.75195312 C-57.93422344 131.09677621 -55.33489076 129.63705706 -52.05078125 127.94140625 C-51.37395798 127.60636078 -50.6971347 127.27131531 -49.99980164 126.92611694 C-48.53406247 126.19876578 -47.07141512 125.46515794 -45.61157227 124.7260437 C-42.47621889 123.13926423 -39.32566435 121.58382069 -36.17575073 120.02619934 C-34.54048499 119.21718596 -32.90599198 118.4066089 -31.27224731 117.5945282 C-23.23178317 113.60091523 -15.12823777 109.74863575 -7 105.9375 C-6.31007965 105.61347198 -5.6201593 105.28944397 -4.90933228 104.95559692 C11.0661424 97.45630706 27.11172336 90.10921076 43.1852417 82.82275391 C44.87137033 82.05831661 46.55704206 81.29287173 48.24267578 80.52734375 C50.84706151 79.34653614 53.45382196 78.17128771 56.0625 77 C56.77019531 76.67966797 57.47789062 76.35933594 58.20703125 76.02929688 C62.76470961 74 62.76470961 74 65 74 C63.7934375 72.6078125 63.7934375 72.6078125 62.5625 71.1875 C59.29431053 67.41651215 58.67153158 64.0777837 58.69921875 59.06640625 C59.17738877 55.78131609 61.02670394 53.58995107 63 51 C63 50.34 63 49.68 63 49 C57.56586321 45.9003647 52.12223412 42.81885747 46.6640625 39.76171875 C42.27040978 37.29794607 37.91846064 34.77659682 33.5859375 32.20703125 C31.51605999 31.01226692 29.44576073 29.81823289 27.375 28.625 C26.43011719 28.04790283 25.48523438 27.47080566 24.51171875 26.8762207 C17.07304698 22.66084368 11.35940717 22.57530983 3 24 C2.49387936 21.1259578 1.99493459 18.25097127 1.5 15.375 C1.35691406 14.56675781 1.21382812 13.75851562 1.06640625 12.92578125 C0.32123749 8.56122136 -0.17272306 4.44761871 0 0 Z " fill="#4AAAD2" transform="translate(293,286)"/>
<path d="M0 0 C2.88526979 1.47988814 5.69380913 3.05419467 8.5012207 4.67675781 C9.4602832 5.21558594 10.4193457 5.75441406 11.4074707 6.30957031 C14.11411188 7.83391493 16.80915931 9.37684611 19.5012207 10.92675781 C20.89680831 11.72406308 22.29260314 12.52100589 23.6887207 13.31738281 C25.0809082 14.11402344 25.0809082 14.11402344 26.5012207 14.92675781 C26.5012207 17.89675781 26.5012207 20.86675781 26.5012207 23.92675781 C17.81449277 28.12677644 9.02449524 32.01077023 0.1262207 35.73925781 C-11.46665609 40.60349263 -22.99070244 45.61547908 -34.4987793 50.67675781 C-35.37459656 51.06192566 -36.25041382 51.44709351 -37.152771 51.84393311 C-43.26954706 54.53494404 -49.38439279 57.23032284 -55.4987793 59.92675781 C-57.08600989 60.62648523 -58.67324921 61.32619286 -60.26049805 62.02587891 C-67.46183382 65.20062792 -74.66227388 68.37740364 -81.86206055 71.55566406 C-82.52224686 71.8470929 -83.18243317 72.13852173 -83.86262512 72.43878174 C-84.5051976 72.72243591 -85.14777008 73.00609009 -85.80981445 73.29833984 C-101.42154055 80.18982992 -117.04645438 87.05054694 -132.68618774 93.87823486 C-134.46987818 94.65707406 -136.25338823 95.43632652 -138.03671265 96.21600342 C-140.54173325 97.31099009 -143.04749599 98.40426032 -145.5534668 99.49707031 C-146.31165207 99.82882263 -147.06983734 100.16057495 -147.85099792 100.50238037 C-156.08071701 104.08613867 -156.08071701 104.08613867 -159.92871094 102.61914062 C-161.34378534 101.96679214 -162.75356908 101.30289039 -164.15893555 100.62988281 C-164.90461288 100.28044617 -165.65029022 99.93100952 -166.41856384 99.57098389 C-167.995178 98.82914247 -169.56947595 98.08236153 -171.14160156 97.33105469 C-173.54932252 96.18246174 -175.96558667 95.05361156 -178.38354492 93.92675781 C-179.9133936 93.20396627 -181.44270919 92.48004509 -182.97143555 91.75488281 C-184.05739769 91.24843231 -184.05739769 91.24843231 -185.16529846 90.73175049 C-188.58230255 89.08489153 -190.3519782 88.14695946 -192.4987793 84.92675781 C-186.5940225 80.97320159 -180.49715439 77.96477204 -173.9987793 75.11425781 C-165.79791796 71.48865664 -165.79791796 71.48865664 -157.7878418 67.46582031 C-157.07821289 67.08917236 -156.36858398 66.71252441 -155.63745117 66.32446289 C-154.34025802 65.62538147 -153.05156356 64.91017334 -151.77416992 64.17553711 C-146.8402586 61.52935235 -143.79899439 61.83323975 -138.4987793 62.92675781 C-136.81801699 63.55704368 -135.15082385 64.22463888 -133.4987793 64.92675781 C-115.09555666 70.39021453 -97.04523139 66.98091453 -80.3112793 58.42675781 C-73.885166 54.92910436 -68.99703525 50.40500958 -65.4987793 43.92675781 C-64.88455091 38.92518381 -65.41047618 35.93011371 -68.4987793 31.92675781 C-69.9837793 30.93675781 -69.9837793 30.93675781 -71.4987793 29.92675781 C-70.4987793 26.92675781 -70.4987793 26.92675781 -68.2409668 25.64550781 C-67.29479492 25.24332031 -66.34862305 24.84113281 -65.3737793 24.42675781 C-64.44307617 24.02457031 -63.51237305 23.62238281 -62.5534668 23.20800781 C-61.54541992 22.78519531 -60.53737305 22.36238281 -59.4987793 21.92675781 C-52.9702442 19.18180556 -46.55131814 16.2120352 -40.1237793 13.23925781 C-38.97288818 12.70977539 -37.82199707 12.18029297 -36.63623047 11.63476562 C-31.48525813 9.25999708 -26.34604789 6.87261118 -21.26049805 4.36035156 C-20.49721191 3.98676514 -19.73392578 3.61317871 -18.94750977 3.22827148 C-17.57222906 2.55131903 -16.20222439 1.86348434 -14.83911133 1.16235352 C-9.59601594 -1.40666646 -5.50760873 -2.36555427 0 0 Z " fill="#FBFCFB" transform="translate(418.498779296875,370.0732421875)"/>
<path d="M0 0 C4.24215112 0.84843022 7.07241687 1.81029969 10.91015625 3.625 C12.05363525 4.16165283 13.19711426 4.69830566 14.37524414 5.2512207 C14.97595734 5.53615387 15.57667053 5.82108704 16.19558716 6.11465454 C18.73602334 7.31940475 21.28213176 8.51192703 23.82810974 9.70491028 C25.10861409 10.30492843 26.38885757 10.90550365 27.6688385 11.50663757 C32.61133333 13.82600147 37.5765633 16.08840791 42.5625 18.3125 C52.38684905 22.70536677 62.17126784 27.18423055 71.95635986 31.66363525 C80.16923104 35.4230961 88.38358446 39.17903007 96.609375 42.91015625 C97.30301651 43.22479828 97.99665802 43.53944031 98.71131897 43.86361694 C100.09823801 44.49267362 101.48516524 45.12171224 102.87210083 45.75073242 C113.6895453 50.65701466 124.48422832 55.60608964 135.25 60.625 C138.64317939 62.20043968 142.03728816 63.77384669 145.43212891 65.34570312 C147.93857006 66.50785211 150.44340529 67.67308398 152.94677734 68.84179688 C156.29138339 70.40180789 159.64251009 71.94701131 162.99816895 73.48309326 C164.27879979 74.07206093 165.55726323 74.66576716 166.83337402 75.26446533 C168.60048741 76.09261303 170.37626327 76.90219993 172.15234375 77.7109375 C173.16288818 78.17806152 174.17343262 78.64518555 175.21459961 79.12646484 C180.39788281 80.75200497 184.30645081 78.57737233 189.1015625 76.48046875 C190.89750854 75.69893433 190.89750854 75.69893433 192.72973633 74.90161133 C194.0282266 74.33039783 195.32664586 73.75902287 196.625 73.1875 C197.98512302 72.59300629 199.3453956 71.99885465 200.70581055 71.4050293 C210.16841942 67.26854667 219.60742922 63.07870638 229.03979492 58.8737793 C253.75824549 47.85951544 278.54034911 36.98719086 303.4375 26.3828125 C307.52705053 24.63776336 311.59954265 22.85992727 315.65869141 21.04541016 C323.77005819 17.42362991 331.91063933 13.86700001 340.04589844 10.29931641 C342.5678738 9.1900641 345.08566634 8.07216194 347.6015625 6.94921875 C348.83842955 6.40339169 350.07539692 5.85779187 351.3125 5.3125 C352.33988281 4.85488281 353.36726563 4.39726562 354.42578125 3.92578125 C357 3 357 3 361 3 C361.33 6.63 361.66 10.26 362 14 C353.1220657 18.14714148 344.18826053 22.12653838 335.1875 26 C332.53211979 27.1461357 329.87735774 28.2936995 327.22265625 29.44140625 C326.54523376 29.73414932 325.86781128 30.0268924 325.16986084 30.32850647 C317.81213856 33.50994582 310.46773047 36.72164319 303.125 39.9375 C302.46317719 40.22729736 301.80135437 40.51709473 301.11947632 40.81567383 C297.75692328 42.28810008 294.394527 43.76088375 291.03222656 45.23388672 C285.02113919 47.86707825 279.00854439 50.49682402 272.99606323 53.12683105 C271.00262555 53.99885146 269.00923821 54.87098683 267.01586914 55.74316406 C260.95106207 58.39674056 254.88611148 61.04998725 248.8205719 63.70188904 C246.07898002 64.90055744 243.33747274 66.09941926 240.59597778 67.29830933 C239.24516323 67.88898787 237.89431306 68.47958498 236.54342651 69.07009888 C228.60076756 72.54222081 220.66459628 76.0282848 212.73730469 79.53540039 C208.73460515 81.30312597 204.72679888 83.05896904 200.71679688 84.81005859 C198.93734704 85.58944739 197.15991318 86.37345906 195.38476562 87.16259766 C193.03333547 88.2061944 190.67454014 89.23069745 188.3125 90.25 C187.64742432 90.550271 186.98234863 90.85054199 186.29711914 91.15991211 C180.68070888 93.54056663 177.11396008 92.84859822 171.54125977 90.61157227 C170.25452726 90.02063437 168.97142322 89.421753 167.69140625 88.81640625 C166.63207634 88.32628555 166.63207634 88.32628555 165.55134583 87.82626343 C163.21853971 86.74506848 160.89061955 85.65374509 158.5625 84.5625 C156.91066063 83.79491871 155.25847284 83.02808681 153.60595703 82.26196289 C150.14500409 80.65633728 146.68584475 79.04693711 143.22802734 77.43457031 C135.76466262 73.95615781 128.28698784 70.50879104 120.80969238 67.06045532 C118.3595494 65.93037371 115.90971848 64.79961806 113.45996094 63.66870117 C90.09237199 52.88250786 66.70206434 42.16100362 43.16671753 31.74502563 C11.10777398 17.55388699 11.10777398 17.55388699 0 12 C0 8.04 0 4.08 0 0 Z " fill="#F8FBF9" transform="translate(83,427)"/>
<path d="M0 0 C3.91120278 0.62303526 7.07711267 1.82151991 10.64453125 3.52734375 C12.33993042 4.33014771 12.33993042 4.33014771 14.06958008 5.14916992 C14.67573151 5.43891693 15.28188293 5.72866394 15.90640259 6.02719116 C19.26442053 7.63090427 22.63209228 9.21406034 26 10.796875 C26.72198074 11.13639694 27.44396149 11.47591888 28.18782043 11.82572937 C36.84823795 15.8857049 45.58166064 19.78198692 54.3125 23.6875 C68.17568535 29.89358381 81.98197751 36.21067529 95.75 42.625 C110.23037313 49.37026166 124.76561784 55.97191286 139.39208984 62.39453125 C146.24735987 65.40954948 153.06447395 68.47335772 159.80859375 71.73046875 C161.0215334 72.31134687 162.2345045 72.89215931 163.44750977 73.47290039 C165.66071286 74.53969612 167.86632776 75.62244834 170.06225586 76.72436523 C171.0291333 77.18915283 171.99601074 77.65394043 172.9921875 78.1328125 C173.82089355 78.54418457 174.64959961 78.95555664 175.50341797 79.37939453 C180.95316606 80.73410406 186.48295082 76.98336974 191.40625 74.76171875 C192.11456467 74.44504745 192.82287933 74.12837616 193.55265808 73.80210876 C195.07503435 73.12134905 196.59688488 72.43941262 198.11825562 71.75640869 C202.19692847 69.92593146 206.28007917 68.10550294 210.36328125 66.28515625 C211.18754105 65.91755188 212.01180084 65.54994751 212.86103821 65.17120361 C220.11552322 61.93991333 227.39525964 58.77025588 234.6875 55.625 C259.42379532 44.9473654 284.08673841 34.09893577 308.69873047 23.13793945 C319.2296603 18.44829479 329.77585937 13.79404109 340.3359375 9.17041016 C342.7380358 8.11508948 345.13537622 7.04982274 347.53125 5.98046875 C348.79155901 5.42423517 350.05196512 4.86822152 351.3125 4.3125 C352.33988281 3.85488281 353.36726563 3.39726562 354.42578125 2.92578125 C357 2 357 2 361 2 C361 5.63 361 9.26 361 13 C351.03527234 18.11733757 340.99265924 22.86579939 330.6685791 27.21185303 C326.84215419 28.823087 323.0233122 30.45217101 319.203125 32.078125 C318.42700867 32.40791351 317.65089233 32.73770203 316.85125732 33.07748413 C309.29462491 36.29139388 301.76893208 39.57404018 294.25 42.875 C291.61463421 44.03136597 288.97920073 45.18757761 286.34375 46.34375 C285.67651917 46.63654846 285.00928833 46.92934692 284.32183838 47.23101807 C279.08341038 49.52843781 273.83948792 51.81307649 268.59375 54.09375 C253.13633728 60.81543766 237.69012098 67.55877065 222.29263306 74.4168396 C220.02991492 75.42418214 217.76643053 76.42978187 215.50268555 77.43481445 C208.93034643 80.35380823 202.3643331 83.28441116 195.81640625 86.2578125 C193.73187244 87.19293487 191.64724492 88.12784838 189.5625 89.0625 C188.64533203 89.486521 187.72816406 89.91054199 186.78320312 90.34741211 C185.94853516 90.71874268 185.11386719 91.09007324 184.25390625 91.47265625 C183.54564697 91.79500244 182.8373877 92.11734863 182.10766602 92.44946289 C176.98041337 93.78873715 172.35024857 90.95660663 167.7890625 88.81640625 C167.08074783 88.48934189 166.37243317 88.16227753 165.64265442 87.82530212 C163.30109558 86.74267787 160.9631064 85.65255772 158.625 84.5625 C156.97949505 83.8002478 155.33373861 83.0385383 153.68774414 82.27734375 C150.22723233 80.67609117 146.7681028 79.07190655 143.31005859 77.46533203 C135.52959411 73.85134569 127.74055057 70.25593747 119.95147705 66.66055298 C117.43669469 65.49962824 114.92220399 64.33807333 112.40771484 63.17651367 C103.81274229 59.20786742 95.20987876 55.26049917 86.56591797 51.39941406 C77.61120711 47.39432104 68.7005576 43.29258009 59.78317261 39.20526123 C49.92811407 34.6893993 40.05255586 30.22439586 30.14849854 25.81710815 C19.62682678 21.1344553 9.21354925 16.32391308 -1 11 C-1.125 3.375 -1.125 3.375 0 0 Z " fill="#F8FBF8" transform="translate(84,404)"/>
<path d="M0 0 C4.80105826 1.48962968 9.25857496 3.40495538 13.80078125 5.52734375 C14.54518967 5.87177017 15.28959808 6.21619659 16.05656433 6.57106018 C17.64913036 7.30800077 19.24109947 8.04623247 20.83251953 8.78564453 C25.03712465 10.73852177 29.24672592 12.68054213 33.45703125 14.62109375 C34.29054108 15.00530487 35.1240509 15.38951599 35.9828186 15.78536987 C42.45706608 18.76362166 48.96421335 21.65922925 55.5 24.5 C76.27481982 33.5527925 96.78764105 43.20156663 117.3565979 52.70996094 C121.44341158 54.59884603 125.5312888 56.48535952 129.62158203 58.36669922 C131.23212167 59.10769238 132.84263611 59.84874031 134.453125 60.58984375 C135.24375336 60.95360107 136.03438171 61.3173584 136.84896851 61.69213867 C141.64218848 63.90134931 146.42222285 66.13664358 151.19342041 68.39300537 C154.23730523 69.82980995 157.28732062 71.25326484 160.33850098 72.67449951 C161.76260796 73.34191645 163.18385043 74.01548529 164.60192871 74.69561768 C166.55045747 75.62953379 168.50791614 76.54148884 170.46875 77.44921875 C171.56638672 77.96830811 172.66402344 78.48739746 173.79492188 79.0222168 C179.90849504 80.88730368 184.84962328 78.88597464 190.48828125 76.3671875 C191.39891327 75.96491692 191.39891327 75.96491692 192.32794189 75.55451965 C194.32649304 74.66941952 196.31935321 73.77219551 198.3125 72.875 C199.73846536 72.24107539 201.16482491 71.6080368 202.59155273 70.97583008 C205.57407366 69.65281295 208.55446265 68.3251588 211.53320312 66.99365234 C217.83944461 64.1761335 224.16012155 61.39142171 230.48040771 58.60559082 C232.58773209 57.676374 234.69455142 56.74602012 236.80126953 55.81542969 C251.68421698 49.24364802 266.60065895 42.7490145 281.51849365 36.25691223 C288.21350509 33.34315983 294.9065909 30.42500838 301.59893799 27.50514221 C305.70846427 25.71229209 309.8184522 23.92051989 313.9296875 22.1315918 C315.5234488 21.43801424 317.11719891 20.74441097 318.7109375 20.05078125 C319.87638092 19.54356789 319.87638092 19.54356789 321.06536865 19.02610779 C325.64438948 17.03149715 330.21815257 15.02540426 334.78742981 13.00857544 C337.59544639 11.76998465 340.40579394 10.53674392 343.21652222 9.30432129 C344.51596973 8.73283399 345.81428057 8.1587541 347.11135864 7.58190918 C348.87731945 6.79672793 350.64754052 6.02114928 352.41796875 5.24609375 C353.40563232 4.80966553 354.3932959 4.3732373 355.41088867 3.92358398 C358 3 358 3 362 3 C362 6.3 362 9.6 362 13 C354.79843876 16.73147228 347.38660931 19.92430007 339.9375 23.125 C338.60162067 23.70092934 337.26584715 24.27710417 335.93017578 24.85351562 C333.90463379 25.72759855 331.87902111 26.60151301 329.85302734 27.47454834 C322.79602087 30.51592354 315.75193577 33.58687037 308.71069336 36.66455078 C304.20550277 38.62803261 299.68677696 40.54946696 295.14453125 42.42578125 C288.80995687 45.05608584 282.56135682 47.86074278 276.3125 50.6875 C262.50679217 56.90749442 248.65995735 63.0330891 234.78271484 69.09179688 C233.91777405 69.46943176 233.05283325 69.84706665 232.16168213 70.23614502 C230.40992166 71.00091447 228.65809053 71.76552209 226.90618896 72.52996826 C221.60556023 74.84714204 216.31993914 77.19522876 211.04452515 79.56922913 C207.65449924 81.09219495 204.25810459 82.60059504 200.8605957 84.10678101 C199.26121912 84.82011505 197.66477459 85.54006444 196.0715332 86.26699829 C193.866229 87.27231101 191.65164765 88.25367849 189.43359375 89.23046875 C188.79578476 89.52843353 188.15797577 89.82639832 187.50083923 90.13339233 C181.35137577 92.78734937 176.75194622 92.03751629 170.67797852 89.74755859 C169.58928467 89.21984863 168.50059082 88.69213867 167.37890625 88.1484375 C166.77049896 87.85806107 166.16209167 87.56768463 165.5352478 87.26850891 C164.22505697 86.64181284 162.91728849 86.01003142 161.61178589 85.37362671 C158.78211888 83.99471659 155.94033358 82.64166217 153.09895325 81.28709412 C151.61302155 80.57862236 150.12766536 79.86894239 148.64286804 79.15809631 C141.12175074 75.56236364 133.53555877 72.11683176 125.9375 68.6875 C117.1143218 64.69805354 108.30151065 60.68821599 99.515625 56.6171875 C98.71175354 56.24472397 97.90788208 55.87226044 97.07965088 55.48851013 C95.44040819 54.72882649 93.80118712 53.9690962 92.1619873 53.20932007 C77.99108649 46.64170769 63.77229739 40.20314129 49.48092651 33.90213013 C32.84881696 26.56197846 16.41134605 18.819117 0 11 C0 7.37 0 3.74 0 0 Z " fill="#49A9D3" transform="translate(83,439)"/>
<path d="M0 0 C4.30526486 0.64535814 7.97198497 2.19862363 11.87890625 4.03515625 C12.55089554 4.34540237 13.22288483 4.6556485 13.91523743 4.97529602 C15.37053284 5.64761311 16.82475618 6.32225464 18.27801514 6.9989624 C22.20483648 8.82708664 26.13964556 10.63785305 30.07421875 12.44921875 C30.88961121 12.82500061 31.70500366 13.20078247 32.54510498 13.58795166 C40.51990801 17.25533967 48.54162299 20.8135928 56.57159424 24.3581543 C67.47842025 29.17300687 78.34671987 34.02990378 89.08154297 39.2199707 C96.83276761 42.95565812 104.66229987 46.51322577 112.5 50.0625 C127.29160045 56.76164066 142.05426366 63.52193621 156.80340576 70.31404114 C158.24209013 70.97546244 159.6815628 71.63517226 161.12188721 72.29301453 C164.21215401 73.70563901 167.28226337 75.13852656 170.33300781 76.63574219 C171.29819336 77.10399414 172.26337891 77.57224609 173.2578125 78.0546875 C174.47041748 78.66159424 174.47041748 78.66159424 175.70751953 79.28076172 C181.08345454 80.96739692 186.07390176 77.80982949 190.9453125 75.6328125 C191.73120255 75.28642227 192.51709259 74.94003204 193.32679749 74.58314514 C195.92830538 73.43513361 198.52660916 72.28004716 201.125 71.125 C202.95722947 70.31503884 204.7896714 69.50555814 206.62231445 68.6965332 C211.446 66.5657597 216.26709755 64.4291947 221.08758545 62.29119873 C228.54324172 58.98578539 236.00304044 55.68971943 243.46224976 52.39233398 C245.28347372 51.5871703 247.10462001 50.78183091 248.9256897 49.97631836 C263.74051093 43.42359939 278.58494469 36.94429543 293.45947266 30.52832031 C298.38438094 28.40241176 303.30607863 26.26912897 308.22753906 24.13525391 C310.71731083 23.05573142 313.20755476 21.97731047 315.69824219 20.89990234 C321.55956307 18.36367484 327.4174873 15.82024026 333.26602173 13.25463867 C336.03099404 12.04218024 338.79753647 10.8333287 341.56420898 9.62475586 C342.88335937 9.04729516 344.20173708 8.46806574 345.51928711 7.88696289 C347.34553011 7.08163313 349.17466139 6.28286281 351.00390625 5.484375 C352.04361572 5.02772461 353.0833252 4.57107422 354.15454102 4.10058594 C357 3 357 3 362 2 C362 5.63 362 9.26 362 13 C358.60449839 14.479932 355.20867724 15.95911962 351.8125 17.4375 C350.77689941 17.88834961 349.74129883 18.33919922 348.67431641 18.80371094 C341.75274365 21.81327353 334.81809995 24.79051002 327.875 27.75 C322.48288587 30.05012915 317.11650018 32.3764804 311.8125 34.875 C305.85716671 37.66068055 299.81226097 40.2064953 293.75 42.75 C282.16027134 47.62092134 270.63414458 52.62940304 259.125 57.6875 C257.81837402 58.26170181 257.81837402 58.26170181 256.48535156 58.84750366 C244.6556851 64.04900866 232.84231611 69.28660082 221.03756714 74.54437256 C216.64946382 76.49738558 212.25881331 78.44466803 207.86799622 80.39157104 C203.66220143 82.25764759 199.46457828 84.14109709 195.26953125 86.03125 C193.36751629 86.8757409 191.46520222 87.71955867 189.5625 88.5625 C188.74040039 88.93898682 187.91830078 89.31547363 187.07128906 89.70336914 C186.32717773 90.02942139 185.58306641 90.35547363 184.81640625 90.69140625 C184.19193604 90.97185791 183.56746582 91.25230957 182.92407227 91.54125977 C178.03468861 92.70699405 173.55708489 90.0403853 169.20703125 88.04296875 C168.22570976 87.59496414 168.22570976 87.59496414 167.2245636 87.13790894 C165.08484725 86.15950368 162.94868827 85.17358141 160.8125 84.1875 C159.31188771 83.49947894 157.8110715 82.81190248 156.31005859 82.12475586 C151.8701327 80.09017734 147.4346863 78.04596798 143 76 C141.83549316 75.46342773 140.67098633 74.92685547 139.47119141 74.37402344 C135.31717178 72.45951264 131.16402697 70.54313555 127.01269531 68.62280273 C114.30179663 62.74406064 101.56000852 56.93296379 88.82064819 51.11624146 C83.54660687 48.70770385 78.27478496 46.29435599 73.00390625 43.87890625 C59.15103644 37.53263653 45.2879684 31.21356987 31.375 25 C23.4746448 21.47015699 15.58391724 17.92538035 7.75 14.25 C7.05825684 13.92644531 6.36651367 13.60289062 5.65380859 13.26953125 C1.12689559 11.12689559 1.12689559 11.12689559 0 10 C-0.07205511 8.31391034 -0.08386068 6.62499341 -0.0625 4.9375 C-0.05347656 4.01839844 -0.04445313 3.09929687 -0.03515625 2.15234375 C-0.02355469 1.44207031 -0.01195313 0.73179687 0 0 Z " fill="#48A9D1" transform="translate(83,416)"/>
<path d="M0 0 C13.19984697 7.5427697 21.77126806 23.57099862 28.73046875 36.515625 C29.4718811 37.87264526 29.4718811 37.87264526 30.22827148 39.25708008 C30.67630127 40.11712646 31.12433105 40.97717285 31.5859375 41.86328125 C31.9883667 42.62777588 32.3907959 43.39227051 32.80541992 44.17993164 C33.70778793 46.96111288 33.32461574 48.67335649 32.54296875 51.453125 C21.79958078 53.23053119 11.33998043 53.76837843 0.46289062 53.71386719 C-2.08617766 53.7031075 -4.6345461 53.71385148 -7.18359375 53.7265625 C-29.87277613 53.74525256 -29.87277613 53.74525256 -36.45703125 50.453125 C-35.9158059 45.04932811 -34.00826729 41.07959888 -31.45703125 36.390625 C-31.05403809 35.64401611 -30.65104492 34.89740723 -30.23583984 34.12817383 C-10.22995328 -2.27693714 -10.22995328 -2.27693714 0 0 Z " fill="#193045" transform="translate(262.45703125,8.546875)"/>
<path d="M0 0 C1.32 2.64 2.64 5.28 4 8 C2.40671875 8.32871094 2.40671875 8.32871094 0.78125 8.6640625 C-10.6770687 11.13434931 -10.6770687 11.13434931 -20 18 C-21.14352916 20.28705831 -21.10334439 21.59264762 -21.0625 24.125 C-21.041875 25.40375 -21.02125 26.6825 -21 28 C-16.25071565 26.16193563 -11.54309439 24.26521544 -6.9140625 22.140625 C-5.85251953 21.65831421 -5.85251953 21.65831421 -4.76953125 21.16625977 C-3.35366842 20.52006281 -1.94205691 19.86445834 -0.53515625 19.19897461 C4.45477341 16.93409827 4.45477341 16.93409827 7.14306641 17.2590332 C9 18 9 18 10.25 20.5625 C10.4975 21.366875 10.745 22.17125 11 23 C10.18917969 23.30292969 9.37835938 23.60585938 8.54296875 23.91796875 C1.2279074 26.68559965 -5.92436028 29.6677849 -13 33 C-12.34 34.32 -11.68 35.64 -11 37 C-7.44123378 36.40437409 -4.49475211 35.45033202 -1.2421875 33.8984375 C-0.36949219 33.49109375 0.50320312 33.08375 1.40234375 32.6640625 C3.22685449 31.80023388 5.04976089 30.93300902 6.87109375 30.0625 C8.17626953 29.45535156 8.17626953 29.45535156 9.5078125 28.8359375 C10.29816895 28.46001465 11.08852539 28.0840918 11.90283203 27.69677734 C14 27 14 27 17 28 C17.495 30.475 17.495 30.475 18 33 C2.28571429 41 2.28571429 41 -1 41 C-1 41.66 -1 42.32 -1 43 C12.43492938 45.1074399 24.38939729 44.7792983 36 37 C38.29582863 33.93282876 38.29582863 33.93282876 40 31 C44.77609498 32.64178265 48.79382904 35.26546702 53 38 C46.60644729 47.21423773 35.46863452 52.23267315 24.6640625 54.5625 C11.87082629 56.09005059 -1.18932863 56.66546712 -13 51 C-16.21302578 49.95926864 -16.21302578 49.95926864 -19 50 C-20.68756133 50.96432076 -22.35666496 51.96210419 -24 53 C-26.1875 52.9375 -26.1875 52.9375 -28 52 C-29.25 49.9375 -29.25 49.9375 -30 48 C-28.35 47.34 -26.7 46.68 -25 46 C-25 45.34 -25 44.68 -25 44 C-27.79414229 42.09998324 -29.05121003 42.00457232 -32.5 42.3125 C-35.8243461 42.86797236 -35.8243461 42.86797236 -38.1875 43.8125 C-40 44 -40 44 -42.25 42.1875 C-44 40 -44 40 -44 38 C-41.69 37.34 -39.38 36.68 -37 36 C-37.66 34.989375 -38.32 33.97875 -39 32.9375 C-41.15030915 29.12070126 -41.63152179 26.42065251 -41 22 C-36.12232922 11.07401745 -27.89553215 6.23639946 -17 2 C-11.30679564 -0.02016929 -5.98401703 -0.18700053 0 0 Z " fill="#46A7D1" transform="translate(245,331)"/>
<path d="M0 0 C11.23341133 4.83268039 18.96250276 17.93786379 24.2265625 28.44921875 C30.3023987 44.71769604 25.90931026 69.32169485 20 85 C16.17108804 83.50723036 14.64467134 81.42837431 12.375 78.0625 C4.61324805 67.11314089 -4.20449143 58.80051638 -15 51 C-13.55219037 42.46131352 -11.09593287 34.26452124 -8.5625 26 C-8.16297583 24.68502811 -7.76388499 23.36992448 -7.36523438 22.0546875 C-6.59850533 19.52630766 -5.82795218 16.99920668 -5.05517578 14.47265625 C-3.87126288 10.57631725 -2.72368203 6.67005389 -1.59350586 2.7578125 C-1 1 -1 1 0 0 Z " fill="#1A3349" transform="translate(308,168)"/>
<path d="M0 0 C0.268125 1.0209375 0.53625 2.041875 0.8125 3.09375 C3.57871249 13.42207023 6.76570313 23.5587852 10.23242188 33.67382812 C12.07529982 39.07984385 13.71113602 44.43475142 15 50 C14.27296875 50.51046875 13.5459375 51.0209375 12.796875 51.546875 C1.45119431 59.75067489 -8.07030152 68.48750579 -15.23510742 80.6315918 C-16.11290478 82.11456432 -17.05097514 83.56156769 -18 85 C-18.66 85 -19.32 85 -20 85 C-31.67076329 38.71352616 -31.67076329 38.71352616 -20.125 18.6875 C-16.95032112 13.93229429 -13.25090354 9.87052762 -9.25 5.8125 C-8.68297363 5.2352417 -8.11594727 4.6579834 -7.53173828 4.06323242 C-3.38018815 0 -3.38018815 0 0 0 Z " fill="#1A3248" transform="translate(215,169)"/>
<path d="M0 0 C1.15957207 3.47871621 0.77456651 4.34219645 -0.4375 7.6875 C-0.86869141 8.89986328 -0.86869141 8.89986328 -1.30859375 10.13671875 C-1.65083984 11.05904297 -1.65083984 11.05904297 -2 12 C-2.928125 11.67 -3.85625 11.34 -4.8125 11 C-10.94495146 9.26745782 -17.35223601 9.06837934 -23.375 11.1875 C-27.34005359 13.9252751 -30.45186225 16.35558674 -32 21 C-23.75 21 -15.5 21 -7 21 C-7 23.31 -7 25.62 -7 28 C-15.91 28 -24.82 28 -34 28 C-34 29.98 -34 31.96 -34 34 C-26.08 34 -18.16 34 -10 34 C-10 36.31 -10 38.62 -10 41 C-17.26 41 -24.52 41 -32 41 C-30.68 42.98 -29.36 44.96 -28 47 C-28 47.66 -28 48.32 -28 49 C-27.21625 49.309375 -26.4325 49.61875 -25.625 49.9375 C-23 51 -23 51 -21 52 C-14.10275024 52.67799052 -8.38232127 51.58992747 -2 49 C0.42857143 57.42857143 0.42857143 57.42857143 -1 62 C-10.04218216 65.83607728 -19.62944703 66.64338859 -28.91015625 63.03515625 C-36.84970443 59.10248285 -42.68455454 53.051881 -46.375 45 C-46.58125 44.34 -46.7875 43.68 -47 43 C-49.97 42.67 -52.94 42.34 -56 42 C-55.67 39.36 -55.34 36.72 -55 34 C-52.69 34 -50.38 34 -48 34 C-48 32.02 -48 30.04 -48 28 C-50.31 28 -52.62 28 -55 28 C-54.125 21.125 -54.125 21.125 -53 20 C-51.00041636 19.95919217 -48.99954746 19.95745644 -47 20 C-46.95875 19.34 -46.9175 18.68 -46.875 18 C-44.58450901 10.14688802 -37.75912981 3.75123842 -30.82421875 -0.2578125 C-21.81852415 -4.47324402 -8.82185287 -5.31938027 0 0 Z " fill="#F4F8F7" transform="translate(284,90)"/>
<path d="M0 0 C15.84 0 31.68 0 48 0 C51 12 51 12 51 17 C33.51 17 16.02 17 -2 17 C-2 9 -2 9 0 0 Z " fill="#1B3146" transform="translate(237,219)"/>
<path d="M0 0 C0.34654062 3.63867652 0.1496871 5.70062581 -1.5 9 C-6.95465031 15.54558038 -12.86693646 18.77022518 -21 21 C-21.99 21.33 -22.98 21.66 -24 22 C-31.95678431 22.52573416 -38.75446134 22.47785856 -46 19 C-43.38219932 15.88998801 -40.36171929 14.62723182 -36.6796875 13.00390625 C-36.0615921 12.7290892 -35.4434967 12.45427216 -34.80667114 12.17112732 C-32.83226342 11.29505049 -30.85378397 10.42864008 -28.875 9.5625 C-27.56742611 8.98436184 -26.26013143 8.40559177 -24.953125 7.82617188 C-22.43834343 6.71201984 -19.92080261 5.60449008 -17.40112305 4.50146484 C-15.31685263 3.58133972 -13.23854467 2.64736607 -11.17114258 1.68994141 C-10.37603271 1.32175293 -9.58092285 0.95356445 -8.76171875 0.57421875 C-7.76338013 0.10181763 -7.76338013 0.10181763 -6.74487305 -0.38012695 C-4.25856928 -1.2633962 -2.42508094 -0.93874101 0 0 Z " fill="#F5F9F9" transform="translate(336,406)"/>
<path d="M0 0 C2.31 0 4.62 0 7 0 C6.649375 0.5775 6.29875 1.155 5.9375 1.75 C4.85082593 4.35801776 5.06934867 5.39417629 6 8 C5.34 8 4.68 8 4 8 C0 2.58823529 0 2.58823529 0 0 Z " fill="#2E9FCE" transform="translate(252,131)"/>
<path d="M0 0 C0.66 0.33 1.32 0.66 2 1 C2 1.99 2 2.98 2 4 C1.01 4 0.02 4 -1 4 C-1.33 4.99 -1.66 5.98 -2 7 C-3.65 7.33 -5.3 7.66 -7 8 C-5.08864614 4.46399535 -3.37357234 2.21027154 0 0 Z " fill="#2EA4D3" transform="translate(259,101)"/>
<path d="M0 0 C0.99 0 1.98 0 3 0 C3 2.97 3 5.94 3 9 C2.34 9 1.68 9 1 9 C0.67 6.03 0.34 3.06 0 0 Z " fill="#77C2DD" transform="translate(273,286)"/>
</svg>
